<mxfile host="app.diagrams.net" modified="2022-10-10T11:08:29.642Z" agent="5.0 (Macintosh; Intel Mac OS X 10_15_7) AppleWebKit/537.36 (KHTML, like Gecko) Chrome/105.0.0.0 Safari/537.36" etag="_QZzw6aalg8EWZCWT2X8" version="20.4.0" type="github">
  <diagram id="pGm6MjmUJyYkasZbrODY" name="Page-1">
    <mxGraphModel dx="1426" dy="794" grid="1" gridSize="10" guides="1" tooltips="1" connect="1" arrows="1" fold="1" page="1" pageScale="1" pageWidth="850" pageHeight="1100" math="0" shadow="0">
      <root>
        <mxCell id="0" />
        <mxCell id="1" parent="0" />
        <mxCell id="HDcylkz4XKt1juwoc_Es-1" value="&lt;font style=&quot;font-size: 16px;&quot;&gt;genesis block&lt;/font&gt;" style="rounded=1;whiteSpace=wrap;html=1;" vertex="1" parent="1">
          <mxGeometry x="100" y="290" width="140" height="60" as="geometry" />
        </mxCell>
        <mxCell id="HDcylkz4XKt1juwoc_Es-4" value="5" style="whiteSpace=wrap;html=1;aspect=fixed;fontSize=16;" vertex="1" parent="1">
          <mxGeometry x="300" y="295" width="50" height="50" as="geometry" />
        </mxCell>
        <mxCell id="HDcylkz4XKt1juwoc_Es-5" value="1" style="whiteSpace=wrap;html=1;aspect=fixed;fontSize=16;fillColor=#dae8fc;strokeColor=#6c8ebf;" vertex="1" parent="1">
          <mxGeometry x="440" y="245" width="50" height="50" as="geometry" />
        </mxCell>
        <mxCell id="HDcylkz4XKt1juwoc_Es-6" value="4" style="whiteSpace=wrap;html=1;aspect=fixed;fontSize=16;" vertex="1" parent="1">
          <mxGeometry x="440" y="345" width="50" height="50" as="geometry" />
        </mxCell>
        <mxCell id="HDcylkz4XKt1juwoc_Es-9" value="" style="endArrow=none;html=1;rounded=0;fontSize=16;strokeWidth=2;exitX=1;exitY=0.5;exitDx=0;exitDy=0;entryX=0;entryY=0.5;entryDx=0;entryDy=0;" edge="1" parent="1" source="HDcylkz4XKt1juwoc_Es-1" target="HDcylkz4XKt1juwoc_Es-4">
          <mxGeometry width="50" height="50" relative="1" as="geometry">
            <mxPoint x="400" y="430" as="sourcePoint" />
            <mxPoint x="450" y="380" as="targetPoint" />
          </mxGeometry>
        </mxCell>
        <mxCell id="HDcylkz4XKt1juwoc_Es-10" value="" style="endArrow=none;html=1;rounded=0;fontSize=16;strokeWidth=2;exitX=1;exitY=0.5;exitDx=0;exitDy=0;entryX=0;entryY=0.5;entryDx=0;entryDy=0;" edge="1" parent="1" source="HDcylkz4XKt1juwoc_Es-4" target="HDcylkz4XKt1juwoc_Es-5">
          <mxGeometry width="50" height="50" relative="1" as="geometry">
            <mxPoint x="250" y="330" as="sourcePoint" />
            <mxPoint x="310" y="330" as="targetPoint" />
          </mxGeometry>
        </mxCell>
        <mxCell id="HDcylkz4XKt1juwoc_Es-11" value="" style="endArrow=none;html=1;rounded=0;fontSize=16;strokeWidth=2;exitX=1;exitY=0.5;exitDx=0;exitDy=0;entryX=0;entryY=0.5;entryDx=0;entryDy=0;" edge="1" parent="1" source="HDcylkz4XKt1juwoc_Es-4" target="HDcylkz4XKt1juwoc_Es-6">
          <mxGeometry width="50" height="50" relative="1" as="geometry">
            <mxPoint x="360" y="330" as="sourcePoint" />
            <mxPoint x="450" y="280" as="targetPoint" />
          </mxGeometry>
        </mxCell>
        <mxCell id="HDcylkz4XKt1juwoc_Es-21" value="" style="ellipse;whiteSpace=wrap;html=1;aspect=fixed;fontSize=16;" vertex="1" parent="1">
          <mxGeometry x="500" y="260" width="20" height="20" as="geometry" />
        </mxCell>
        <mxCell id="HDcylkz4XKt1juwoc_Es-23" value="2" style="whiteSpace=wrap;html=1;aspect=fixed;fontSize=16;" vertex="1" parent="1">
          <mxGeometry x="660" y="345" width="50" height="50" as="geometry" />
        </mxCell>
        <mxCell id="HDcylkz4XKt1juwoc_Es-24" value="4" style="whiteSpace=wrap;html=1;aspect=fixed;fontSize=16;" vertex="1" parent="1">
          <mxGeometry x="550" y="345" width="50" height="50" as="geometry" />
        </mxCell>
        <mxCell id="HDcylkz4XKt1juwoc_Es-25" value="1" style="whiteSpace=wrap;html=1;aspect=fixed;fontSize=16;" vertex="1" parent="1">
          <mxGeometry x="770" y="345" width="50" height="50" as="geometry" />
        </mxCell>
        <mxCell id="HDcylkz4XKt1juwoc_Es-26" value="1" style="whiteSpace=wrap;html=1;aspect=fixed;fontSize=16;fillColor=#dae8fc;strokeColor=#6c8ebf;" vertex="1" parent="1">
          <mxGeometry x="650" y="280" width="50" height="50" as="geometry" />
        </mxCell>
        <mxCell id="HDcylkz4XKt1juwoc_Es-27" value="1" style="whiteSpace=wrap;html=1;aspect=fixed;fontSize=16;fillColor=#dae8fc;strokeColor=#6c8ebf;" vertex="1" parent="1">
          <mxGeometry x="650" y="420" width="50" height="50" as="geometry" />
        </mxCell>
        <mxCell id="HDcylkz4XKt1juwoc_Es-28" value="" style="endArrow=none;html=1;rounded=0;fontSize=16;strokeWidth=2;exitX=1;exitY=0.5;exitDx=0;exitDy=0;entryX=0;entryY=0.5;entryDx=0;entryDy=0;" edge="1" parent="1" source="HDcylkz4XKt1juwoc_Es-6" target="HDcylkz4XKt1juwoc_Es-24">
          <mxGeometry width="50" height="50" relative="1" as="geometry">
            <mxPoint x="360" y="330" as="sourcePoint" />
            <mxPoint x="450" y="380" as="targetPoint" />
          </mxGeometry>
        </mxCell>
        <mxCell id="HDcylkz4XKt1juwoc_Es-29" value="" style="endArrow=none;html=1;rounded=0;fontSize=16;strokeWidth=2;exitX=1;exitY=0.5;exitDx=0;exitDy=0;entryX=0;entryY=0.5;entryDx=0;entryDy=0;" edge="1" parent="1" source="HDcylkz4XKt1juwoc_Es-24" target="HDcylkz4XKt1juwoc_Es-23">
          <mxGeometry width="50" height="50" relative="1" as="geometry">
            <mxPoint x="500" y="380" as="sourcePoint" />
            <mxPoint x="560" y="380" as="targetPoint" />
          </mxGeometry>
        </mxCell>
        <mxCell id="HDcylkz4XKt1juwoc_Es-30" value="" style="endArrow=none;html=1;rounded=0;fontSize=16;strokeWidth=2;exitX=1;exitY=0.5;exitDx=0;exitDy=0;entryX=0;entryY=0.5;entryDx=0;entryDy=0;" edge="1" parent="1" source="HDcylkz4XKt1juwoc_Es-23" target="HDcylkz4XKt1juwoc_Es-25">
          <mxGeometry width="50" height="50" relative="1" as="geometry">
            <mxPoint x="610" y="380" as="sourcePoint" />
            <mxPoint x="670" y="380" as="targetPoint" />
          </mxGeometry>
        </mxCell>
        <mxCell id="HDcylkz4XKt1juwoc_Es-31" value="" style="endArrow=none;html=1;rounded=0;fontSize=16;strokeWidth=2;exitX=1;exitY=0.25;exitDx=0;exitDy=0;entryX=0;entryY=0.5;entryDx=0;entryDy=0;" edge="1" parent="1" source="HDcylkz4XKt1juwoc_Es-24" target="HDcylkz4XKt1juwoc_Es-26">
          <mxGeometry width="50" height="50" relative="1" as="geometry">
            <mxPoint x="610" y="380" as="sourcePoint" />
            <mxPoint x="670" y="380" as="targetPoint" />
          </mxGeometry>
        </mxCell>
        <mxCell id="HDcylkz4XKt1juwoc_Es-32" value="" style="endArrow=none;html=1;rounded=0;fontSize=16;strokeWidth=2;exitX=1;exitY=0.75;exitDx=0;exitDy=0;entryX=0;entryY=0.5;entryDx=0;entryDy=0;" edge="1" parent="1" source="HDcylkz4XKt1juwoc_Es-24" target="HDcylkz4XKt1juwoc_Es-27">
          <mxGeometry width="50" height="50" relative="1" as="geometry">
            <mxPoint x="610" y="367.5" as="sourcePoint" />
            <mxPoint x="660" y="315" as="targetPoint" />
          </mxGeometry>
        </mxCell>
      </root>
    </mxGraphModel>
  </diagram>
</mxfile>
